<?xml version="1.0" encoding="UTF-8"?><svg id="a" xmlns="http://www.w3.org/2000/svg" viewBox="0 0 127.56 127.56"><defs><style>.c{font-family:ArialMT, Arial;font-size:10px;}.d,.e,.f,.g{fill:none;}.e{stroke-linecap:round;stroke-linejoin:round;}.e,.f,.g{stroke:#000;}.e,.g{stroke-width:.28px;}</style></defs><g><text class="c" transform="translate(99.44 79.12)"><tspan x="0" y="0">67</tspan></text><line class="g" x1="96.78" y1="43.46" x2="96.78" y2="112.61"/></g><text class="c" transform="translate(35.14 120.31)"><tspan x="0" y="0">Ø26</tspan></text><text class="c" transform="translate(24.68 94.75)"><tspan x="0" y="0">Ø32</tspan></text><g id="b"><g><path class="e" d="M48,49.17c-.07-.05-.22-.02-.29,.02-.05,.02-.07,.05-.07,.07"/><line class="e" x1="80.99" y1="76.8" x2="80.99" y2="45.71"/><line class="e" x1="59.2" y1="39.48" x2="59.2" y2="70.57"/><line class="e" x1="56.39" y1="71.29" x2="56.39" y2="40.2"/><line class="e" x1="53.13" y1="41.57" x2="53.13" y2="72.66"/><line class="e" x1="51.24" y1="73.85" x2="51.24" y2="42.77"/><line class="e" x1="49.15" y1="44.76" x2="49.15" y2="75.84"/><line class="e" x1="48" y1="77.86" x2="48" y2="49.17"/><line class="e" x1="48.15" y1="46.43" x2="48.15" y2="46.46"/><path class="e" d="M49.49,44.73c-.1-.05-.22-.05-.31,0l-.02,.02"/><line class="e" x1="49.49" y1="75.44" x2="49.49" y2="44.73"/><path class="e" d="M51.24,42.77s-.05,.05-.05,.07"/><path class="e" d="M53.42,41.57c-.07-.05-.22-.05-.29,0"/><line class="e" x1="53.42" y1="72.51" x2="53.42" y2="41.57"/><path class="e" d="M56.39,40.2c-.07,.02-.1,.07-.1,.12"/><path class="e" d="M59.41,39.51s-.14-.05-.22-.02"/><line class="e" x1="59.41" y1="70.52" x2="59.41" y2="39.51"/><path class="e" d="M71.42,42.98s-.05,.05-.05,.07"/><line class="e" x1="71.42" y1="70.81" x2="71.42" y2="42.98"/><path class="e" d="M73.6,41.78c-.1-.05-.22-.02-.29,.02"/><path class="e" d="M80.99,45.71s-.02-.02-.05-.05"/><line class="e" x1="73.31" y1="41.81" x2="73.31" y2="71.36"/><line class="e" x1="73.6" y1="71.46" x2="73.6" y2="41.78"/><line class="e" x1="80.94" y1="45.67" x2="80.94" y2="76.71"/><line class="e" x1="47.64" y1="79.46" x2="47.64" y2="49.26"/><polyline class="e" points="48.15 46.46 48.15 49.24 48.15 77.52"/><polyline class="e" points="51.19 42.84 51.19 45.62 51.19 73.88"/><polyline class="e" points="56.3 40.32 56.3 43.08 56.3 71.31"/><polyline class="e" points="71.37 70.81 71.37 45.83 71.37 43.05"/><line class="e" x1="81.85" y1="79.46" x2="81.85" y2="48.38"/><line class="e" x1="48" y1="49.17" x2="48.15" y2="49.24"/><path class="e" d="M81.85,79.92v-.46"/><path class="e" d="M80.99,76.8s-.05-.07-.05-.1c-1.37-2.28-4.03-4.1-7.33-5.25-.1-.02-.19-.07-.29-.1-.6-.19-1.25-.38-1.89-.55h-.05c-3.67-.89-7.89-1.05-11.96-.29h-.05s-.12,.02-.17,.05"/><path class="e" d="M56.39,71.29s-.07,.02-.1,.02c-1.03,.36-1.99,.74-2.88,1.2l-.29,.14"/><path class="e" d="M51.24,73.85s-.02,.02-.05,.02c-.65,.48-1.22,1.01-1.7,1.56-.12,.12-.24,.26-.34,.41"/><path class="e" d="M48.15,77.52c-.34,.77-.5,1.58-.5,2.4"/><line class="e" x1="49.49" y1="44.73" x2="51.19" y2="45.62"/><line class="e" x1="53.42" y1="41.57" x2="56.3" y2="43.08"/><polyline class="e" points="59.41 39.51 66.87 43.49 66.94 43.51"/><line class="e" x1="68.21" y1="44.16" x2="71.37" y2="45.83"/><line class="e" x1="73.6" y1="41.78" x2="80.94" y2="45.67"/><path class="e" d="M81.85,83.59c0-4.99-6.54-9.28-15.34-9.8-9.4-.55-17.81,3.38-18.79,8.82-.02,.17-.05,.34-.07,.5-.05,.5-.02,1.01,.07,1.51"/><path class="e" d="M81.75,84.62c.07-.34,.1-.67,.1-1.01"/><path class="e" d="M52.65,78.65c-1.8,1.03-3.19,2.3-4.03,3.72-.46,.72-.77,1.46-.89,2.25-.07,.34-.1,.67-.1,1.01"/><path class="e" d="M75.62,78c-2.95-1.41-6.74-2.25-10.88-2.25s-7.91,.84-10.86,2.25"/><path class="e" d="M81.85,85.62c0-.34-.02-.67-.1-1.01-.14-.79-.43-1.56-.89-2.28-.86-1.41-2.25-2.66-4.03-3.69"/><path class="e" d="M76.36,78.38c-.24-.14-.48-.26-.74-.38-6.21-3.19-15.56-3.19-21.74,0-.26,.12-.5,.24-.74,.38"/><path class="e" d="M80.87,82.34c-1.73-5.13-10.36-8.49-19.27-7.5-6.57,.74-11.7,3.71-12.99,7.5"/><line class="e" x1="76.36" y1="78.38" x2="76.84" y2="78.65"/><line class="e" x1="53.13" y1="78.38" x2="52.65" y2="78.65"/><path class="e" d="M81.85,48.38c-.1-.91-.36-1.8-.86-2.66"/><path class="e" d="M59.2,39.48c-.96,.19-1.89,.43-2.8,.72"/><path class="e" d="M53.13,41.57c-.7,.36-1.32,.77-1.89,1.2"/><path class="e" d="M49.15,44.76c-.43,.55-.77,1.1-1.01,1.68"/><polyline class="e" points="47.64 83.61 47.64 83.11 47.64 79.92"/><polyline class="e" points="81.85 83.61 81.85 83.59 81.85 79.92"/><line class="e" x1="47.64" y1="97.73" x2="47.64" y2="85.62"/><line class="e" x1="81.85" y1="97.73" x2="81.85" y2="85.62"/><line class="e" x1="71.42" y1="42.98" x2="73.31" y2="41.81"/><path class="e" d="M75.3,83.83c0-.12,.02-.26,.1-.36,.05-.12,.12-.19,.21-.24,.1-.07,.19-.1,.31-.07,.12,0,.26,.05,.38,.1,.12,.07,.24,.17,.36,.29s.22,.26,.31,.41c.07,.14,.14,.31,.19,.45,.05,.17,.07,.34,.07,.46,0,.14-.02,.26-.07,.38-.05,.1-.12,.17-.19,.22-.1,.05-.19,.07-.31,.07-.12-.02-.24-.07-.36-.12-.12-.07-.26-.17-.38-.29-.12-.12-.22-.24-.31-.38-.1-.14-.17-.29-.21-.46-.07-.14-.1-.31-.1-.46Z"/><path class="e" d="M54.88,102.98c1.61,3.12,7.31,4.91,12.73,4,3.36-.55,5.99-2.06,7-4"/><path class="e" d="M54.88,102.98c-1.73,1.22-2.76,2.8-2.76,4.53,0,4,5.66,7.26,12.61,7.26s12.63-3.26,12.63-7.26c0-1.73-1.03-3.31-2.76-4.53v-.02c-.1-.07-.22-.14-.31-.19-.5-.36-1.08-.67-1.7-.96-2.16-.98-4.89-1.58-7.86-1.58s-5.68,.6-7.84,1.58c-.62,.29-1.2,.6-1.7,.96-.1,.05-.22,.12-.31,.19v.02Z"/><path class="e" d="M50.86,107.51c0,4.41,6.21,8.01,13.88,8.01s13.9-3.6,13.9-8.01-6.21-8.03-13.9-8.03-13.88,3.59-13.88,8.03Z"/><path class="e" d="M78.64,98.76c0-4.43-6.21-8.03-13.9-8.03s-13.88,3.6-13.88,8.03"/><path class="e" d="M78.64,104.51c2.18-1.73,3.21-3.74,3.21-5.75,0-3.07-2.47-6.09-7.12-8.03-7.69-3.16-18.38-2.16-23.87,2.28-2.13,1.73-3.21,3.74-3.21,5.75s1.08,4.05,3.21,5.75"/><path class="e" d="M81.85,97.73c0-5.46-7.65-9.9-17.11-9.9s-17.09,4.43-17.09,9.9"/><polyline class="e" points="50.86 107.51 50.86 104.51 50.86 98.76"/><polyline class="e" points="78.64 107.51 78.64 104.51 78.64 98.76"/><line class="e" x1="47.64" y1="98.76" x2="47.64" y2="97.73"/><line class="e" x1="81.85" y1="98.76" x2="81.85" y2="97.73"/><path class="e" d="M69.34,49.29c.19-.12,.36-.31,.48-.55"/><path class="e" d="M65.96,44.23c-.5,.43-.65,1.34-.29,2.42,.5,1.51,1.82,2.78,2.97,2.83,.24,0,.48-.05,.65-.14"/><path class="e" d="M66.79,43.96c-.26,0-.5,.05-.7,.17"/><path class="e" d="M69.48,47.18c.38-.22,.36-.93-.02-1.56-.41-.62-1.03-.93-1.41-.69-.36,.24-.36,.93,.05,1.56,.38,.62,1.01,.93,1.39,.69Z"/><path class="e" d="M68.76,44.68c-.12-.1-.26-.19-.43-.29-.31-.19-.72-.34-1.22-.41-.1-.02-.19-.02-.31-.02"/><path class="e" d="M69.82,48.73c.14-.34,.22-.62,.24-.91,.05-.36,.02-.65,0-.94-.07-.36-.17-.65-.29-.91-.14-.31-.31-.6-.55-.86-.12-.14-.26-.29-.43-.41"/><line class="e" x1="68.04" y1="46" x2="68.02" y2="46"/><line class="e" x1="69.12" y1="45.31" x2="68.04" y2="46"/><line class="e" x1="68.21" y1="44.97" x2="69.12" y2="45.31"/><line class="e" x1="67.87" y1="45.71" x2="68.21" y2="44.97"/><polyline class="e" points="68.21 46.34 68.07 46.07 68.02 46 67.99 45.98 67.87 45.71"/><polyline class="e" points="68.33 46.58 68.28 46.48 68.21 46.36"/><line class="e" x1="68.4" y1="46.75" x2="68.33" y2="46.6"/><line class="e" x1="68.81" y1="46.96" x2="68.45" y2="46.82"/><line class="e" x1="69.31" y1="47.15" x2="68.83" y2="46.96"/><line class="e" x1="69.67" y1="46.41" x2="69.31" y2="47.15"/><polyline class="e" points="69.67 46.41 68.83 46.96 68.81 46.96"/><polyline class="e" points="68.45 46.82 68.42 46.79 68.4 46.75 68.33 46.6 68.33 46.58 68.28 46.48 68.21 46.36 68.21 46.34 68.07 46.07 68.04 46"/><line class="e" x1="69.12" y1="45.31" x2="69.67" y2="46.41"/><path class="e" d="M65.96,44.23c-.86,.53-.84,2.13,.07,3.55,.89,1.44,2.3,2.16,3.16,1.61"/><line class="e" x1="65.96" y1="44.23" x2="66.1" y2="44.13"/><polyline class="e" points="69.19 49.38 69.29 49.33 69.34 49.29"/><path class="e" d="M65.96,58.2c-.5,.43-.65,1.34-.29,2.4,.5,1.53,1.82,2.8,2.97,2.85,.26,0,.5-.07,.7-.19,.22-.12,.38-.31,.48-.55"/><path class="e" d="M66.79,57.94c-.26,0-.5,.05-.7,.17"/><path class="e" d="M69.48,61.15c.38-.24,.36-.93-.02-1.56-.41-.62-1.03-.93-1.41-.7-.36,.24-.36,.93,.05,1.56,.38,.62,1.01,.93,1.39,.69Z"/><path class="e" d="M69.82,62.71c.14-.34,.22-.65,.24-.91,.05-.36,.02-.67,0-.94-.07-.36-.17-.65-.29-.93-.14-.31-.31-.58-.55-.84-.22-.26-.5-.5-.89-.72-.31-.19-.72-.36-1.22-.41-.1-.02-.19-.02-.31-.02"/><polyline class="e" points="68.04 59.95 68.02 59.95 67.99 59.95"/><line class="e" x1="69.12" y1="59.28" x2="68.04" y2="59.95"/><line class="e" x1="68.21" y1="58.92" x2="69.12" y2="59.28"/><line class="e" x1="67.87" y1="59.66" x2="68.21" y2="58.92"/><polyline class="e" points="68.33 60.55 68.21 60.31 68.09 60.07 68.02 59.95 67.87 59.66"/><polyline class="e" points="69.31 61.13 68.81 60.91 68.45 60.79"/><line class="e" x1="69.67" y1="60.38" x2="69.31" y2="61.13"/><line class="e" x1="69.67" y1="60.38" x2="68.81" y2="60.91"/><polyline class="e" points="68.45 60.79 68.42 60.77 68.33 60.55 68.21 60.31 68.09 60.07 68.04 59.95"/><line class="e" x1="69.12" y1="59.28" x2="69.67" y2="60.38"/><path class="e" d="M65.96,58.2c-.86,.53-.84,2.13,.07,3.55,.89,1.44,2.3,2.13,3.16,1.61"/><line class="e" x1="65.96" y1="58.2" x2="66.1" y2="58.11"/><line class="e" x1="69.19" y1="63.36" x2="69.34" y2="63.26"/><path class="e" d="M69.58,63.93c.46-.31,.74-.89,.74-1.7"/><path class="e" d="M64.81,59.31c0,1.7,1.25,3.71,2.76,4.53,.7,.36,1.34,.41,1.82,.22"/><line class="e" x1="64.81" y1="59.31" x2="63.51" y2="60.14"/><path class="e" d="M68.78,44.71l-.02-.02c-.19-.19-.36-.38-.55-.53-.46-.36-.91-.58-1.34-.67-.6-.14-1.15-.05-1.53,.34-.1,.1-.17,.22-.24,.34-.19,.31-.29,.72-.29,1.2"/><path class="e" d="M70.32,48.26c0-.43-.07-.89-.24-1.37,0-.07-.05-.17-.07-.26"/><line class="e" x1="63.51" y1="46.17" x2="64.81" y2="45.35"/><path class="e" d="M69.58,63.93s-.12,.07-.19,.12l-1.77,1.13"/><polyline class="e" points="65.57 43.63 65.31 43.8 63.63 44.88"/><path class="e" d="M63.51,58.92c-.98,.77-.84,2.78,.34,4.48,1.1,1.63,2.76,2.4,3.76,1.77"/><path class="e" d="M63.63,44.88c-.98,.6-1.03,2.35-.12,4"/><polyline class="e" points="63.51 46.17 63.51 48.88 63.51 58.92 63.51 60.14"/><line class="e" x1="70.32" y1="62.23" x2="70.32" y2="48.26"/><line class="e" x1="64.81" y1="45.35" x2="64.81" y2="59.31"/><path class="e" d="M55.17,102.74s0,.02,.02,.02c2.06,3.04,8.01,4.55,13.28,3.36,2.66-.6,4.77-1.8,5.83-3.36,.02,0,.02-.02,.02-.02"/><path class="e" d="M59.03,102.88c.29,.14,.58,.24,.89,.31,3.26,1.03,7.33,.96,10.52-.31,.31-.1,.62-.22,.91-.36,.46-.22,.86-.45,1.25-.72"/><path class="e" d="M57.47,102.16c.24,.14,.48,.26,.72,.36,.26,.14,.53,.26,.81,.36"/><path class="e" d="M56.9,101.8c.17,.12,.34,.21,.5,.31"/><path class="e" d="M57.4,102.12s.05,.02,.07,.05c.24,.12,.48,.24,.72,.36,.26,.12,.53,.24,.81,.36h.02c.29,.12,.6,.22,.89,.31,3.31,.98,7.36,.89,10.52-.31,.58-.22,1.13-.48,1.63-.77"/></g></g><path class="f" d="M63.46,52.11c-9.89-.71-17.62-3.85-15.22-11.58,2.08-6.71,3.72-6.11,10.56-14.67,6.59-8.26,7.82-11.07,8.13-15.86"/><path class="f" d="M63.46,55.01c-9.89-.71-17.62-3.85-15.22-11.58,2.08-6.71,3.72-6.11,10.56-14.67,6.59-8.26,10.08-11.07,10.39-15.86"/><rect class="d" width="127.56" height="127.56"/></svg>